<?xml version="1.0" encoding="utf-8"?>
<!-- Generator: Adobe Illustrator 27.7.0, SVG Export Plug-In . SVG Version: 6.00 Build 0)  -->
<svg version="1.1" id="Layer_1" xmlns="http://www.w3.org/2000/svg" xmlns:xlink="http://www.w3.org/1999/xlink" x="0px" y="0px"
	 viewBox="0 0 188 60" style="enable-background:new 0 0 188 60;" xml:space="preserve">
<style type="text/css">
	.st0{fill-rule:evenodd;clip-rule:evenodd;fill:#FFC750;}
	.st1{fill-rule:evenodd;clip-rule:evenodd;fill:#FF6895;}
	.st2{fill-rule:evenodd;clip-rule:evenodd;fill:#5FC5A6;}
	.st3{fill-rule:evenodd;clip-rule:evenodd;fill:#5666F6;}
	.st4{fill-rule:evenodd;clip-rule:evenodd;fill:#1F294F;}
	.st5{fill-rule:evenodd;clip-rule:evenodd;fill:#5F9A34;}
	.st6{fill-rule:evenodd;clip-rule:evenodd;fill:#FF512F;}
	.st7{fill-rule:evenodd;clip-rule:evenodd;fill:#552990;}
	.st8{fill-rule:evenodd;clip-rule:evenodd;fill:#204FA0;}
	.st9{fill:#1F294F;}
	.st10{font-family:'Arial-Black';}
	.st11{font-size:23px;}
</style>
<path class="st0" d="M38,16.1c-2.9-2.9-8.3-2.6-13.9,0.4c-0.8,0.4-0.8,2.3,0,2.8c4.3,2.7,8,6.4,10.7,10.7c0.5,0.8,2.4,0.8,2.8,0
	c-0.1-0.2-0.2-0.4-0.3-0.6c0.1,0.2,0.2,0.4,0.3,0.6C40.6,24.4,41,19,38,16.1z M31.8,22.3c-1.6-1.6-3.4-3.1-5.2-4.3
	c2.2-1,4.2-1.5,6-1.5c1.6,0,2.9,0.4,3.8,1.3c1.9,1.9,1.7,5.7-0.2,9.8C34.8,25.7,33.4,23.9,31.8,22.3z"/>
<path class="st1" d="M39.3,34c-0.4-1.4-1-2.7-1.7-4c-0.4-0.8-2.3-0.8-2.8,0c-1.3,2.2-2.9,4.2-4.7,6c-1.8,1.8-3.8,3.4-6,4.7
	c-0.8,0.5-0.8,2.3,0,2.8c3,1.6,5.9,2.5,8.4,2.5c2.2,0,4.1-0.7,5.5-2C40.2,41.8,40.6,38.3,39.3,34z M36.3,42.2
	c-1.9,1.9-5.7,1.7-9.8-0.2c1.9-1.3,3.6-2.7,5.2-4.3c1.6-1.6,3.1-3.4,4.3-5.2C38,36.6,38.2,40.3,36.3,42.2z"/>
<path class="st2" d="M24.1,16.5c-1.3-0.7-2.6-1.3-4-1.7c-4.2-1.3-7.7-0.9-9.9,1.3c-1.4,1.4-2,3.3-2,5.5c0,2.5,0.9,5.4,2.5,8.4
	c0.4,0.8,2.3,0.8,2.8,0c2.7-4.4,6.4-8,10.7-10.7C24.9,18.8,24.9,17,24.1,16.5L24.1,16.5z M12.1,27.6c-1.9-4.1-2.1-7.8-0.2-9.8
	c1.5-1.5,4.1-1.7,7.4-0.7c0.8,0.3,1.6,0.6,2.3,0.9C17.9,20.5,14.6,23.8,12.1,27.6z"/>
<path class="st3" d="M24.1,40.7c-2.2-1.3-4.2-2.9-6-4.7c-1.8-1.8-3.4-3.8-4.7-6c-0.5-0.8-2.3-0.8-2.8,0c-0.7,1.3-1.3,2.6-1.7,4
	c-1.3,4.2-0.9,7.7,1.3,9.9c1.4,1.4,3.2,2,5.5,2c1.5,0,3-0.3,4.4-0.7c1.4-0.4,2.8-1,4-1.7C24.7,43.1,24.9,41.2,24.1,40.7L24.1,40.7z
	 M19.3,42.9c-3.3,1-6,0.8-7.4-0.7c-1.5-1.5-1.7-4.1-0.7-7.4c0.3-0.8,0.6-1.6,0.9-2.3c1.3,1.9,2.7,3.6,4.3,5.2
	c1.6,1.6,3.4,3.1,5.2,4.3C20.9,42.4,20.1,42.7,19.3,42.9L19.3,42.9z"/>
<path class="st4" d="M18.7,29.9l5.4-8.4l5.4,8.4l-5.4,3.1L18.7,29.9z"/>
<path class="st4" d="M18.7,31.3l5.4,3.1l5.4-3.1l-5.4,7.3C24.1,38.6,18.7,31.3,18.7,31.3z"/>
<path class="st5" d="M26.5,18c-0.8,0.4-1.6,0.8-2.4,1.3c-0.8-0.5-1.6-0.9-2.5-1.3c0.8-0.5,1.6-1,2.4-1.5C24.9,17,25.7,17.4,26.5,18z
	"/>
<path class="st6" d="M37.6,30c-0.5,0.8-0.9,1.7-1.5,2.4c-0.4-0.8-0.8-1.7-1.3-2.4c0.5-0.8,0.9-1.6,1.3-2.4
	C36.7,28.4,37.1,29.2,37.6,30z"/>
<path class="st7" d="M26.5,42c-0.2,0.1-0.3,0.2-0.5,0.3c-0.6,0.4-1.3,0.8-1.9,1.1c-0.8-0.4-1.6-0.9-2.4-1.5c0.8-0.4,1.7-0.8,2.5-1.3
	C24.9,41.2,25.7,41.6,26.5,42z"/>
<path class="st8" d="M13.4,30c-0.5,0.8-0.9,1.6-1.3,2.5c-0.5-0.8-1-1.6-1.5-2.4c0.5-0.8,0.9-1.7,1.5-2.5
	C12.5,28.4,12.9,29.2,13.4,30L13.4,30z"/>
<path class="st9" d="M148.9,36.7V38c-0.2,0.1-0.5,0.2-0.8,0.2c-1.1,0-2.1-0.7-2.4-1.8c-2,2.1-5.3,2.3-7.5,0.3
	c-2.1-2-2.3-5.3-0.3-7.5c2-2.1,5.3-2.3,7.5-0.3c0,0,0.1,0.1,0.1,0.1v-1.3h1.6v7.6c0,0.9,0.5,1.3,1,1.3H148.9z M145.7,32.9
	c0-2.1-1.7-3.7-3.7-3.7s-3.7,1.7-3.7,3.7c0,2.1,1.7,3.7,3.7,3.7C144,36.7,145.7,35,145.7,32.9C145.7,32.9,145.7,32.9,145.7,32.9z
	 M150.9,22.6h1.7v15.7h-1.7V22.6z M134.3,32.8c0,2.2-1.3,4.1-3.3,5c-2,0.8-4.3,0.4-5.8-1.1V38h-1.6V22.2h1.6V29
	c1.5-1.5,3.8-2,5.8-1.1C133,28.7,134.3,30.7,134.3,32.8z M132.7,32.8c0-2.1-1.7-3.7-3.8-3.7c-2.1,0-3.7,1.7-3.7,3.8
	c0,2,1.7,3.7,3.7,3.7c1,0,2-0.4,2.6-1.1C132.3,34.8,132.7,33.9,132.7,32.8z M110,32.9c0-2.9,2.4-5.3,5.3-5.3c2.9,0,5.3,2.4,5.3,5.3
	c0,2.9-2.4,5.3-5.3,5.3c-1.4,0-2.8-0.6-3.8-1.6C110.5,35.7,110,34.3,110,32.9z M119,32.9c0-2.1-1.7-3.7-3.7-3.7
	c-2.1,0-3.7,1.7-3.7,3.7c0,2.1,1.7,3.7,3.7,3.7C117.4,36.7,119,35,119,32.9z M102,29.7v0.5c0,4-2.9,7.4-6.8,8
	c-3.9,0.5-7.6-2-8.6-5.8c-1-3.9,0.9-7.9,4.6-9.5c3.7-1.5,7.9-0.1,9.8,3.4l-1.4,0.8c-1.4-2.7-4.6-3.9-7.4-2.8c-2.8,1.1-4.5,4-4,7
	c0.5,3.4,3.6,5.7,7,5.2c2.7-0.4,4.8-2.5,5.2-5.1h-6.1v-1.5H102z M105.3,22.6h1.7v15.7h-1.7V22.6z M83.6,22.6v15.7h-3.4v-6.3H74v6.3
	h-3.4V22.6H74v6.3h6.3v-6.3L83.6,22.6z M69.3,25.6h-3.8v12.6h-3.3V25.6h-3.9v-3.1h11V25.6z M51.4,25.6v3.3h5.1v3h-5.1v3.3h5.9v3H48
	V22.6h9.3v3L51.4,25.6z"/>
<text transform="matrix(0.9196 0 0 1 157.2949 38.5863)" class="st10 st11">ID</text>
</svg>
